<svg width="36" height="36" viewBox="0 0 36 36" fill="none" xmlns="http://www.w3.org/2000/svg">
<g opacity="0.9" clip-path="url(#clip0_1_71)">
<path d="M12.1111 18.2222C12.1111 16.9949 11.1162 16 9.88891 16C8.66161 16 7.66669 16.9949 7.66669 18.2222C7.66669 19.4495 8.66161 20.4445 9.88891 20.4445C11.1162 20.4445 12.1111 19.4495 12.1111 18.2222Z" fill="black"/>
<path d="M20 18.2222C20 16.9949 19.0051 16 17.7778 16C16.5505 16 15.5555 16.9949 15.5555 18.2222C15.5555 19.4495 16.5505 20.4445 17.7778 20.4445C19.0051 20.4445 20 19.4495 20 18.2222Z" fill="black"/>
<path d="M27.8889 18.2222C27.8889 16.9949 26.894 16 25.6667 16C24.4394 16 23.4445 16.9949 23.4445 18.2222C23.4445 19.4495 24.4394 20.4445 25.6667 20.4445C26.894 20.4445 27.8889 19.4495 27.8889 18.2222Z" fill="black"/>
</g>
<defs>
<clipPath id="clip0_1_71">
<rect width="35.5556" height="35.5556" fill="white" transform="matrix(0 -1 1 0 0 36)"/>
</clipPath>
</defs>
</svg>
