<svg width="40" height="40" viewBox="0 0 40 40" fill="none" xmlns="http://www.w3.org/2000/svg">
<path fill-rule="evenodd" clip-rule="evenodd" d="M20 40C31.0457 40 40 31.0457 40 20C40 8.9543 31.0457 0 20 0C8.9543 0 0 8.9543 0 20C0 31.0457 8.9543 40 20 40ZM11 11H10V12V13.3846V13.7576L10.2443 14.0395L17.2 22.0653V30V31H18.2H21.8H22.8V30V22.0653L29.7557 14.0395L30 13.7576V13.3846V12V11H29H11ZM12 13V13.0116L18.9557 21.0374L19.2 21.3193V21.6923V29H20.8V21.6923V21.3193L21.0443 21.0374L28 13.0116V13H12Z" fill="#B9C3E0"/>
</svg>
