<svg width="36" height="36" viewBox="0 0 36 36" fill="none" xmlns="http://www.w3.org/2000/svg">
<g opacity="0.9" clip-path="url(#clip0_2_368)">
<path d="M12.1112 18.2222C12.1112 16.9949 11.1163 16 9.88897 16C8.66167 16 7.66675 16.9949 7.66675 18.2222C7.66675 19.4495 8.66167 20.4445 9.88897 20.4445C11.1163 20.4445 12.1112 19.4495 12.1112 18.2222Z" fill="black"/>
<path d="M20.0001 18.2222C20.0001 16.9949 19.0052 16 17.7779 16C16.5506 16 15.5557 16.9949 15.5557 18.2222C15.5557 19.4495 16.5506 20.4445 17.7779 20.4445C19.0052 20.4445 20.0001 19.4495 20.0001 18.2222Z" fill="black"/>
<path d="M27.8888 18.2222C27.8888 16.9949 26.8939 16 25.6666 16C24.4393 16 23.4443 16.9949 23.4443 18.2222C23.4443 19.4495 24.4393 20.4445 25.6666 20.4445C26.8939 20.4445 27.8888 19.4495 27.8888 18.2222Z" fill="black"/>
</g>
<defs>
<clipPath id="clip0_2_368">
<rect width="35.5556" height="35.5556" fill="white" transform="matrix(0 -1 1 0 0 36)"/>
</clipPath>
</defs>
</svg>
